PathFileType	4	(X/Y/Z)	Walk10.trc
DataRate	CameraRate	NumFrames	NumMarkers	Units	OrigDataRate	OrigDataStartFrame	OrigNumFrames
200.000000	200.000000	4	59	mm	200.000000	391	589
Frame#	Times		CLAV		RASI		RACR1		RUA1		RFA1		RWRU		LACR1		LFA1		LCAR		RTH3		RTH2		LTH4		LLFC		LTB1		LTB3		STRN		LTB4		LASI		RElbow		RTH1		RLFC		LTH2		LTH3		LToe		LTH1		LWRR		RBack		C7		RCAR		LTB2		LMT1		RTH4		LFHD		RWRR		LMMAL		T10		LMT5		RFHD		LLMAL		RBHD		RPSI		LPSI		LUA1		RTB2		LBHD		RTB4		LElbow		RTB1		RMT1		RElbowM		RTB3		RToe		RCAL		LElbowM		LCAL		LWRU		RMMAL		RLMAL		RMT5
			X1	Y1	Z1	X2	Y2	Z2	X3	Y3	Z3	X4	Y4	Z4	X5	Y5	Z5	X6	Y6	Z6	X7	Y7	Z7	X8	Y8	Z8	X9	Y9	Z9	X10	Y10	Z10	X11	Y11	Z11	X12	Y12	Z12	X13	Y13	Z13	X14	Y14	Z14	X15	Y15	Z15	X16	Y16	Z16	X17	Y17	Z17	X18	Y18	Z18	X19	Y19	Z19	X20	Y20	Z20	X21	Y21	Z21	X22	Y22	Z22	X23	Y23	Z23	X24	Y24	Z24	X25	Y25	Z25	X26	Y26	Z26	X27	Y27	Z27	X28	Y28	Z28	X29	Y29	Z29	X30	Y30	Z30	X31	Y31	Z31	X32	Y32	Z32	X33	Y33	Z33	X34	Y34	Z34	X35	Y35	Z35	X36	Y36	Z36	X37	Y37	Z37	X38	Y38	Z38	X39	Y39	Z39	X40	Y40	Z40	X41	Y41	Z41	X42	Y42	Z42	X43	Y43	Z43	X44	Y44	Z44	X45	Y45	Z45	X46	Y46	Z46	X47	Y47	Z47	X48	Y48	Z48	X49	Y49	Z49	X50	Y50	Z50	X51	Y51	Z51	X52	Y52	Z52	X53	Y53	Z53	X54	Y54	Z54	X55	Y55	Z55	X56	Y56	Z56	X57	Y57	Z57	X58	Y58	Z58	X59	Y59	Z59

391	1.955	33.39	1325.7	-29.743	82.896	929.62	101.54	-16.585	1328.8	145.86	-60.375	1118	199.57	-59.761	868.48	230.56	-108.57	766.14	247.2	-33.608	1343.1	-196.6	70.885	925.56	-281.25	159.88	797.7	-284.51	91.312	569	123.17	115.92	686.79	103.58	-76.734	615.53	-172.81	-114.98	423.82	-145.74	-152.06	322.58	-73.41	-287.77	193.06	-85.098	116.89	1101.8	-35.514	-219.76	255.47	-83.332	46.599	917.98	-166.07	-95.522	1015.4	216.15	29.652	745.25	158.36	118.54	469.78	112.99	-5.4393	612.69	-143.62	-82.099	527.54	-157.92	-243.1	26.179	-107.37	-68.594	711.55	-185.87	144.76	837.05	-241.59	-133.31	1289.1	71.516	-95.09	1398.6	-20.724	-71.646	716.68	245.49	-231.79	274.2	-152.15	-285.6	38.359	-80.17	60.882	657.02	140.64	64.318	1571.6	-51.731	-55.865	759.98	195.4	-371.23	134.75	-57.195	-119.1	1114.4	-21.504	-326.38	27.641	-156.26	69.068	1573.2	21.389	-388.39	132.19	-139.05	-100.48	1525.1	53.451	-138.69	962.28	56.735	-153.29	954.42	-56.87	-33.73	1137.9	-252.95	163.03	263.02	106.43	-103.44	1533.6	-74.074	174.95	261.48	36.896	-30.939	1017.3	-273.42	167.91	354.16	37.741	317.11	44.009	43.436	-108.04	997.03	132.36	183.22	169.6	35.285	353.34	40.336	75.336	117.01	22.566	32.657	-46.662	996.28	-206.18	-447.12	135.42	-87.498	96.541	807.01	-285.47	176.72	77.099	5.5406	156.35	57.344	82.527	271.39	21.882	118.8
392	1.96	39.769	1326.1	-28.519	89.492	929.97	102.27	-10.076	1329.1	147.07	-53.339	1118.2	200.65	-52.126	868.6	231.32	-100.59	766.1	247.85	-27.167	1343.4	-195.37	75.684	925.46	-280.35	164.17	797.31	-284.06	98.407	570.03	123.34	122.59	687.9	103.63	-68.774	615.33	-171.94	-106.28	423.96	-145.34	-144.53	322.98	-73.601	-282.07	195.52	-86.116	123.55	1102.3	-34.289	-213.21	256.95	-83.924	53.298	918.03	-164.16	-88.303	1015.4	217.18	36.487	746.06	158.97	125.12	470.3	113.2	2.3878	612.91	-142.4	-73.633	527.3	-157.27	-243.12	26.014	-107.35	-61.167	711.44	-184.75	149.42	836.72	-241.06	-126.78	1289.4	72.791	-88.734	1398.9	-19.476	-63.518	716.76	246.03	-225.01	276.33	-152.6	-284.74	38.722	-80.372	67.804	657.95	140.91	70.165	1572.1	-50.523	-47.904	760.19	195.98	-366.43	138.51	-58.44	-112.95	1114.7	-20.448	-325.26	28.988	-156.39	74.925	1573.7	22.592	-383.65	136.38	-140.26	-94.479	1525.2	54.703	-132.44	962.88	57.631	-147.16	954.52	-56.091	-27.997	1138.1	-251.63	167.08	262.91	106.35	-97.493	1533.7	-72.828	178.39	261.27	36.644	-25.795	1017.6	-272.14	172.68	354.04	37.605	317.78	42.375	42.618	-100.85	997.17	133.38	185.35	169.28	34.912	354.36	38.19	74.54	117.07	22.914	32.766	-41.289	996.61	-204.8	-441.93	141.44	-88.861	100.89	806.81	-284.68	177.29	76.755	5.2106	157.16	57.448	82.287	271.67	21.451	119.12
393	1.965	46.132	1326.5	-27.313	96.045	930.38	103	-3.557	1329.4	148.26	-46.267	1118.4	201.72	-44.412	868.79	232.08	-92.517	766.12	248.5	-20.724	1343.8	-194.15	80.414	925.39	-279.45	168.33	796.9	-283.58	105.33	571	123.56	129.1	688.95	103.82	-60.669	615.16	-171.07	-97.274	424.13	-144.95	-136.67	323.45	-73.787	-276.03	198.08	-87.103	130.16	1102.8	-33.076	-206.32	258.49	-84.501	60.028	918.11	-162.21	-81.052	1015.6	218.21	43.095	746.79	159.66	131.55	470.77	113.42	10.361	613.22	-141.18	-64.946	527.09	-156.64	-243.08	25.844	-107.34	-53.672	711.37	-183.63	153.95	836.37	-240.5	-120.25	1289.6	74.067	-82.385	1399.2	-18.245	-55.272	716.91	246.56	-217.89	278.54	-153.02	-283.72	39.2	-80.586	74.532	658.79	141.26	76.019	1572.7	-49.323	-39.834	760.47	196.56	-361.27	142.38	-59.633	-106.85	1115.1	-19.406	-323.94	30.535	-156.51	80.787	1574.4	23.786	-378.55	140.68	-141.43	-88.474	1525.4	55.934	-126.25	963.48	58.503	-141.07	954.65	-55.329	-22.288	1138.5	-250.32	170.94	262.8	106.27	-91.534	1533.8	-71.603	181.71	261.06	36.411	-20.688	1017.9	-270.89	177.31	353.92	37.486	318.34	41.047	41.885	-93.631	997.39	134.4	187.34	168.98	34.559	355.26	36.396	73.861	117.09	23.221	32.87	-35.974	997.02	-203.44	-436.33	147.61	-90.176	105.1	806.63	-283.88	177.77	76.467	4.9018	157.87	57.576	82.062	271.88	21.15	119.43
394	1.97	52.472	1327	-26.128	102.55	930.84	103.74	2.967	1329.8	149.43	-39.162	1118.7	202.78	-36.621	869.06	232.83	-84.337	766.2	249.14	-14.288	1344.2	-192.94	85.076	925.36	-278.54	172.35	796.47	-283.08	112.06	571.88	123.83	135.45	689.91	104.18	-52.436	615.02	-170.21	-87.994	424.33	-144.58	-128.5	323.97	-73.962	-269.65	200.7	-88.04	136.73	1103.4	-31.876	-199.1	260.1	-85.051	66.774	918.24	-160.24	-73.772	1015.7	219.23	49.477	747.42	160.42	137.79	471.19	113.65	18.465	613.61	-139.98	-56.061	526.91	-156.02	-242.96	25.673	-107.37	-46.12	711.32	-182.52	158.33	836	-239.92	-113.74	1290	75.343	-76.05	1399.6	-17.031	-46.911	717.12	247.08	-210.45	280.82	-153.4	-282.51	39.808	-80.812	81.051	659.54	141.68	81.881	1573.4	-48.136	-31.659	760.82	197.14	-355.76	146.34	-60.755	-100.79	1115.5	-18.376	-322.39	32.295	-156.62	86.653	1575	24.966	-373.11	145.07	-142.53	-82.467	1525.5	57.144	-120.12	964.07	59.355	-135.03	954.8	-54.577	-16.599	1138.8	-249.04	174.62	262.68	106.22	-85.566	1534	-70.399	184.89	260.86	36.207	-15.617	1018.3	-269.65	181.8	353.78	37.394	318.8	39.995	41.239	-86.379	997.67	135.42	189.21	168.72	34.234	356.05	34.924	73.304	117.08	23.487	32.968	-30.713	997.5	-202.1	-430.33	153.88	-91.426	109.19	806.46	-283.1	178.15	76.227	4.6187	158.48	57.72	81.855	272.03	20.954	119.71
